<?xml version="1.0" encoding="UTF-8"?>
<svg xmlns="http://www.w3.org/2000/svg" xmlns:xlink="http://www.w3.org/1999/xlink" width="5184pt" height="2592.000001pt" viewBox="0 0 5184 2592.000001" version="1.2">
<defs>
<clipPath id="clip1">
  <path d="M 1584 283 L 3601.027344 283 L 3601.027344 1695 L 1584 1695 Z M 1584 283 "/>
</clipPath>
</defs>
<g id="surface1">
<g clip-path="url(#clip1)" clip-rule="nonzero">
<path style=" stroke:none;fill-rule:nonzero;fill:rgb(100%,100%,100%);fill-opacity:1;" d="M 3600.96875 1291.304688 C 3598.410156 1340.851562 3595.949219 1390.417969 3593.222656 1439.949219 C 3592.921875 1445.640625 3591.550781 1451.378906 3589.910156 1456.867188 C 3580.992188 1486.6875 3573.230469 1516.625 3567.507812 1547.378906 C 3560.582031 1584.628906 3548.652344 1620.925781 3538.863281 1657.621094 C 3535.148438 1671.558594 3527.402344 1682.753906 3515.523438 1690.9375 C 3511.742188 1693.546875 3507.425781 1695.625 3502.675781 1692.960938 C 3498.257812 1690.484375 3495.765625 1686.035156 3496.46875 1681.5 C 3499.144531 1664.480469 3500.164062 1646.660156 3506.171875 1630.796875 C 3518.871094 1597.230469 3521.515625 1560.867188 3536.539062 1528.035156 C 3539.800781 1520.90625 3541.65625 1512.171875 3541.074219 1504.390625 C 3539.398438 1482.253906 3544.902344 1460.683594 3544.835938 1438.777344 C 3544.769531 1411 3546.976562 1383.640625 3551.929688 1356.179688 C 3557.117188 1327.515625 3548.820312 1298.800781 3547.347656 1270.070312 C 3546.945312 1262.003906 3544.417969 1253.957031 3544.835938 1246.007812 C 3546.226562 1220.085938 3537.507812 1196.058594 3531.71875 1171.542969 C 3530.148438 1164.914062 3525.832031 1158.605469 3527.636719 1151.628906 C 3531.96875 1135.046875 3527.203125 1119.535156 3522.902344 1103.988281 C 3513.382812 1069.535156 3505.082031 1034.675781 3488.9375 1002.398438 C 3484.320312 993.128906 3480.824219 983.253906 3477.308594 973.484375 C 3461.164062 928.71875 3439.75 886.9375 3412.125 847.929688 C 3388.835938 815.046875 3368.054688 780.226562 3341.621094 749.789062 C 3316.691406 721.070312 3289.320312 694.464844 3262.835938 667.105469 C 3258.851562 662.988281 3254.269531 659.089844 3249.25 656.445312 C 3219.351562 640.632812 3194.824219 617.65625 3169.175781 596.324219 C 3143.242188 574.753906 3115.351562 556.027344 3085.417969 541.351562 C 3048.140625 523.0625 3011.886719 503.148438 2976.53125 481.597656 C 2960.539062 471.859375 2943.738281 464.644531 2926.070312 459.207031 C 2907.96875 453.652344 2888.476562 452.398438 2875.445312 434.84375 C 2871.34375 429.304688 2861.121094 428.117188 2853.527344 425.421875 C 2840.492188 420.769531 2826.90625 417.375 2814.308594 411.800781 C 2801.859375 406.296875 2790.066406 408.519531 2777.382812 409.40625 C 2764.953125 410.277344 2756.535156 395.101562 2742.433594 396.742188 C 2728.378906 398.363281 2714.925781 394.714844 2701.523438 391.035156 C 2697.074219 389.796875 2692.488281 388.457031 2687.957031 388.40625 C 2631.453125 387.6875 2575.304688 376.375 2518.6875 381.847656 C 2442.863281 389.175781 2367.136719 397.308594 2294.875 424.117188 C 2262.449219 436.148438 2229.121094 445.753906 2196.648438 457.652344 C 2165.144531 469.195312 2136.300781 486.515625 2107.355469 503.167969 C 2079.429688 519.230469 2052.726562 537.46875 2025.65625 554.992188 C 2019.882812 558.722656 2014.628906 563.359375 2009.445312 567.910156 C 2003.355469 573.230469 1998.300781 580.023438 1991.59375 584.257812 C 1941.082031 616.070312 1909.695312 668.378906 1862.796875 704.054688 C 1856.554688 708.804688 1852.40625 716.335938 1847.453125 722.695312 C 1841.0625 730.878906 1835.894531 740.367188 1828.332031 747.242188 C 1794.332031 778.21875 1773.804688 818.460938 1751.03125 857.21875 C 1745.777344 866.167969 1740.089844 874.871094 1734.503906 883.621094 C 1730.167969 890.433594 1723.996094 896.574219 1721.535156 903.988281 C 1708.117188 944.398438 1687.671875 981.847656 1674.101562 1022.394531 C 1661.640625 1059.59375 1654.878906 1097.949219 1643.636719 1135.246094 C 1642.3125 1139.648438 1641.527344 1144.234375 1640.859375 1148.785156 C 1634.652344 1191.019531 1628.761719 1233.289062 1622.269531 1275.492188 C 1620.3125 1288.210938 1619.8125 1300.808594 1622.003906 1313.394531 C 1626.820312 1341.019531 1624.878906 1368.347656 1619.292969 1395.621094 C 1618.390625 1400.039062 1617.132812 1405.246094 1618.589844 1409.125 C 1628.074219 1434.460938 1623.425781 1461.90625 1630.953125 1487.574219 C 1634.550781 1499.804688 1634.683594 1512.859375 1628.007812 1524.6875 C 1625.683594 1528.820312 1621.703125 1531.96875 1616.664062 1530.597656 C 1613.605469 1529.742188 1610.40625 1527.515625 1608.433594 1524.992188 C 1603.933594 1519.265625 1603.964844 1512.105469 1603.734375 1505.160156 C 1603.265625 1491.273438 1601.84375 1477.582031 1597.925781 1464.128906 C 1593.089844 1447.511719 1588.304688 1430.996094 1594.480469 1413.242188 C 1598.027344 1403.070312 1593.894531 1392.792969 1590.3125 1382.921875 C 1584.273438 1366.273438 1582.9375 1349.304688 1586.382812 1331.785156 C 1588.859375 1319.300781 1588.1875 1306.699219 1587.253906 1293.898438 C 1584.222656 1252.367188 1587.269531 1210.933594 1592.605469 1169.71875 C 1595.417969 1147.980469 1599.082031 1126.328125 1603.046875 1104.773438 C 1605.539062 1091.1875 1608.601562 1077.632812 1612.648438 1064.445312 C 1616.03125 1053.386719 1619.84375 1042.644531 1620.628906 1030.914062 C 1621.097656 1024.070312 1622.589844 1017.125 1624.695312 1010.582031 C 1634.25 980.945312 1643.199219 951.09375 1654.226562 922.011719 C 1664.417969 895.136719 1676.949219 869.148438 1688.476562 842.792969 C 1689.394531 840.667969 1690.199219 838.425781 1691.503906 836.566406 C 1725.585938 788.527344 1746.53125 732.519531 1782.804688 685.796875 C 1806.847656 654.824219 1831.242188 624.152344 1859.382812 596.65625 C 1866.777344 589.445312 1873.753906 581.628906 1879.996094 573.398438 C 1888.460938 562.238281 1897.964844 552.53125 1909.726562 544.734375 C 1917.339844 539.664062 1924.449219 533.605469 1930.910156 527.113281 C 1939.125 518.847656 1947.488281 511.082031 1958.214844 506.195312 C 1961.359375 504.757812 1964.871094 503.484375 1967.265625 501.160156 C 2001.730469 467.773438 2045.867188 449.402344 2085.839844 424.585938 C 2091.695312 420.9375 2097.03125 416.46875 2102.601562 412.351562 C 2119.402344 399.988281 2136.851562 388.808594 2156.777344 382.046875 C 2160.058594 380.945312 2163.371094 379.722656 2166.332031 377.980469 C 2218.882812 347.023438 2278.648438 336.984375 2335.816406 319.449219 C 2347.945312 315.734375 2360.078125 312 2372.207031 308.21875 C 2415.488281 294.699219 2460.261719 289.828125 2505.183594 287.519531 C 2539.667969 285.746094 2574.335938 287 2608.917969 286.917969 C 2610.074219 286.902344 2611.261719 287.117188 2612.363281 286.882812 C 2661.234375 276.925781 2708.382812 295.769531 2756.6875 295.753906 C 2763.363281 295.753906 2770.039062 299.101562 2776.730469 300.773438 C 2785.699219 303 2794.714844 307.046875 2803.667969 306.914062 C 2849.695312 306.261719 2891.019531 326.410156 2934.789062 335.546875 C 2964 341.652344 2992.445312 349.769531 3018.445312 366.4375 C 3033.519531 376.089844 3050.96875 383.65625 3069.792969 386.179688 C 3076.332031 387.070312 3082.507812 391.25 3088.648438 394.296875 C 3091.710938 395.820312 3094.167969 398.566406 3097.214844 400.136719 C 3143.675781 424.117188 3184.398438 455.710938 3221.15625 492.675781 C 3225.191406 496.722656 3229.925781 500.339844 3234.894531 503.167969 C 3264.726562 520.183594 3285.824219 545.621094 3305.082031 573.332031 C 3319.554688 594.164062 3336.050781 613.523438 3354.152344 631.445312 C 3366.515625 643.679688 3376.539062 657.769531 3385.558594 672.660156 C 3414.183594 720 3440.804688 768.527344 3473.714844 813.308594 C 3485.828125 829.789062 3494.695312 849.417969 3501.621094 868.847656 C 3525.628906 936.183594 3549.070312 1003.71875 3567.507812 1072.949219 C 3581.796875 1126.644531 3589.574219 1181.347656 3597.925781 1236.050781 C 3600.734375 1254.425781 3601.21875 1272.832031 3600.96875 1291.304688 "/>
</g>
<path style=" stroke:none;fill-rule:nonzero;fill:rgb(100%,100%,100%);fill-opacity:1;" d="M 2483.433594 2327.972656 C 2428.089844 2331.96875 2376.421875 2325.261719 2325.84375 2313.933594 C 2301.25 2308.441406 2276.621094 2302.855469 2251.84375 2298.117188 C 2193.453125 2286.992188 2145.550781 2254.84375 2097.917969 2222.164062 C 2086.539062 2214.367188 2076.46875 2204.863281 2062.28125 2201.648438 C 2056.910156 2200.425781 2051.90625 2196.628906 2047.1875 2193.367188 C 1994.886719 2157.136719 1945.414062 2117.644531 1904.070312 2068.785156 C 1895.136719 2058.242188 1885.769531 2048.066406 1877.085938 2037.324219 C 1873.570312 2032.972656 1870.578125 2027.835938 1868.769531 2022.546875 C 1866.761719 2016.707031 1869.171875 2011.003906 1873.839844 2007.035156 C 1877.585938 2003.855469 1882.371094 2003.808594 1886.804688 2005.949219 C 1896.207031 2010.484375 1905.695312 2015.335938 1911.800781 2024.039062 C 1929.035156 2048.550781 1954.75 2062.691406 1979.445312 2076.933594 C 2004.476562 2091.375 2027.847656 2108.007812 2051.957031 2123.636719 C 2075.164062 2138.664062 2098.90625 2152.855469 2122.628906 2167.058594 C 2128.484375 2170.574219 2134.992188 2173.234375 2141.503906 2175.378906 C 2154.46875 2179.644531 2166.582031 2179.425781 2175.300781 2166.558594 C 2177.222656 2163.695312 2179.449219 2160.9375 2181.957031 2158.59375 C 2197.082031 2144.535156 2208.042969 2143.617188 2225.308594 2154.527344 C 2238.910156 2163.109375 2249.449219 2176.0625 2264.910156 2182.035156 C 2269.8125 2183.929688 2271.066406 2188.746094 2271.367188 2193.414062 C 2273.09375 2220.523438 2289.152344 2235.117188 2314 2241.058594 C 2362.21875 2252.570312 2407.710938 2273.703125 2457.082031 2281.050781 C 2482.164062 2284.765625 2507.210938 2288.714844 2532.238281 2292.730469 C 2541.308594 2294.1875 2550.828125 2294.839844 2559.242188 2298.167969 C 2578.183594 2305.664062 2597.222656 2306.5 2617.015625 2303.304688 C 2625.984375 2301.867188 2635.136719 2298.769531 2644.320312 2302.035156 C 2646.109375 2302.671875 2648.402344 2304.894531 2648.503906 2306.5 C 2648.605469 2308.207031 2646.664062 2311.253906 2645.089844 2311.65625 C 2632.808594 2314.71875 2620.496094 2318.984375 2607.996094 2319.703125 C 2565.417969 2322.164062 2523.289062 2331.132812 2483.433594 2327.972656 "/>
<path style=" stroke:none;fill-rule:nonzero;fill:rgb(100%,100%,100%);fill-opacity:1;" d="M 1624.644531 1546.894531 C 1630.820312 1546.375 1635.421875 1547.765625 1638.347656 1551.496094 C 1641.828125 1555.964844 1645.34375 1560.851562 1647.167969 1566.121094 C 1656.167969 1592.257812 1668.449219 1617.292969 1673.066406 1644.953125 C 1677.300781 1670.339844 1691.050781 1692.226562 1701.023438 1715.453125 C 1713.773438 1745.136719 1728.011719 1774.136719 1741.613281 1803.453125 C 1750.632812 1822.933594 1756.285156 1842.894531 1773.785156 1859.226562 C 1792.691406 1876.898438 1804.671875 1902.015625 1819.511719 1923.988281 C 1821.402344 1926.796875 1822.808594 1930.144531 1823.613281 1933.441406 C 1824.734375 1938.027344 1824.714844 1943.230469 1820.117188 1945.757812 C 1817.570312 1947.164062 1813.15625 1947.230469 1810.445312 1945.992188 C 1795.503906 1939.214844 1782.570312 1929.792969 1773.167969 1915.972656 C 1761.488281 1898.820312 1748.859375 1882.269531 1737.964844 1864.648438 C 1724.664062 1843.148438 1712.871094 1820.707031 1700.171875 1798.835938 C 1686.886719 1775.910156 1671.007812 1754.492188 1660.636719 1729.910156 C 1657.941406 1723.535156 1653.792969 1717.628906 1652.070312 1711.035156 C 1640.773438 1667.511719 1623.691406 1625.644531 1615.09375 1581.347656 C 1613.535156 1573.382812 1611.226562 1565.550781 1613.839844 1557.488281 C 1615.730469 1551.648438 1619.394531 1547.515625 1624.644531 1546.894531 "/>
<path style=" stroke:none;fill-rule:nonzero;fill:rgb(100%,100%,100%);fill-opacity:1;" d="M 3309.613281 2008.675781 C 3305.179688 2016.757812 3300.746094 2024.839844 3296.332031 2032.941406 C 3294.136719 2036.972656 3292.96875 2042.195312 3289.6875 2044.921875 C 3267.753906 2063.261719 3250.304688 2087.023438 3224.519531 2100.609375 C 3214.097656 2106.117188 3204.578125 2111.253906 3199.023438 2122.515625 C 3190.757812 2139.28125 3175.164062 2142.980469 3158.199219 2142.328125 C 3155.40625 2142.226562 3151.421875 2139.398438 3150.417969 2136.871094 C 3149.449219 2134.414062 3150.570312 2129.460938 3152.59375 2127.769531 C 3168.488281 2114.484375 3183.394531 2099.070312 3201.363281 2089.433594 C 3228.570312 2074.808594 3248.679688 2052.820312 3268.824219 2031.117188 C 3280.636719 2018.398438 3292.246094 2009.546875 3309.429688 2008.457031 L 3309.613281 2008.675781 "/>
<path style=" stroke:none;fill-rule:nonzero;fill:rgb(100%,100%,100%);fill-opacity:1;" d="M 3393.570312 1899.605469 C 3388.785156 1898.6875 3385.605469 1894.6875 3386.609375 1890.066406 C 3390.609375 1871.460938 3402.488281 1857.753906 3416.609375 1845.941406 C 3420.257812 1842.894531 3425.445312 1843.449219 3429.375 1846.292969 C 3433.390625 1849.1875 3434.527344 1854.058594 3433.726562 1858.59375 C 3430.230469 1878.121094 3418.28125 1891.140625 3400.816406 1899.488281 C 3398.976562 1900.359375 3396.367188 1899.605469 3393.570312 1899.605469 "/>
<path style=" stroke:none;fill-rule:nonzero;fill:rgb(100%,100%,100%);fill-opacity:1;" d="M 3466.617188 1783.992188 C 3461.785156 1784.832031 3455.507812 1778.453125 3456.046875 1773.167969 C 3457.652344 1756.902344 3467.273438 1746.292969 3481.023438 1739.128906 C 3484.003906 1737.574219 3488.101562 1739.984375 3488.9375 1743.429688 C 3493.136719 1760.765625 3481.59375 1781.367188 3466.617188 1783.992188 "/>
<path style=" stroke:none;fill-rule:nonzero;fill:rgb(100%,100%,100%);fill-opacity:1;" d="M 3087.894531 2184.699219 C 3085.738281 2183.792969 3082.859375 2183.476562 3081.871094 2181.953125 C 3080.96875 2180.53125 3081.300781 2177.117188 3082.472656 2175.777344 C 3088.53125 2168.851562 3094.972656 2162.125 3103.921875 2158.894531 C 3108.492188 2157.238281 3112.957031 2157.640625 3116.320312 2161.890625 C 3119.835938 2166.375 3118.429688 2173.703125 3113.945312 2177.285156 C 3106.183594 2183.476562 3096.796875 2183.242188 3087.894531 2184.699219 "/>
<path style=" stroke:none;fill-rule:nonzero;fill:rgb(100%,100%,100%);fill-opacity:1;" d="M 3309.429688 2008.457031 C 3310.148438 1995.140625 3315.539062 1984.394531 3327.214844 1977.484375 C 3328.871094 1976.496094 3331.917969 1976.53125 3333.65625 1977.402344 C 3335.3125 1978.238281 3337.304688 1981.050781 3337.019531 1982.570312 C 3335.714844 1989.148438 3334.226562 1995.824219 3331.683594 2002.015625 C 3327.699219 2011.6875 3326.714844 2011.707031 3309.613281 2008.675781 L 3309.429688 2008.457031 "/>
<path style=" stroke:none;fill-rule:nonzero;fill:rgb(100%,100%,100%);fill-opacity:1;" d="M 2719.511719 2313.496094 C 2717.785156 2312.945312 2714.289062 2312.390625 2711.511719 2310.667969 C 2710.175781 2309.867188 2709.054688 2306.152344 2709.789062 2304.945312 C 2714.875 2296.527344 2727.675781 2292.949219 2736.996094 2297.316406 C 2738.617188 2298.066406 2740.003906 2301.011719 2740.054688 2302.988281 C 2740.105469 2304.914062 2738.734375 2307.355469 2737.226562 2308.761719 C 2732.761719 2312.945312 2727.023438 2313.648438 2719.511719 2313.496094 "/>
<path style=" stroke:none;fill-rule:nonzero;fill:rgb(100%,100%,100%);fill-opacity:1;" d="M 3386.59375 1925.792969 C 3385.976562 1932.90625 3380.671875 1937.777344 3373.410156 1937.15625 C 3367.4375 1936.65625 3362.617188 1933.710938 3361.398438 1927.652344 C 3360.042969 1920.910156 3368.691406 1913.5625 3377.007812 1914.332031 C 3383.347656 1914.933594 3386.8125 1918.816406 3386.59375 1925.792969 "/>
<path style=" stroke:none;fill-rule:nonzero;fill:rgb(100%,100%,100%);fill-opacity:1;" d="M 2667.277344 408.136719 C 2664.96875 414.445312 2659.878906 416.621094 2653.957031 415.515625 C 2647.617188 414.34375 2644.738281 409.425781 2645.339844 403.097656 C 2645.859375 397.628906 2652.503906 393.894531 2658.222656 395.769531 C 2663.996094 397.695312 2667.726562 401.476562 2667.277344 408.136719 "/>
<path style=" stroke:none;fill-rule:nonzero;fill:rgb(100%,100%,100%);fill-opacity:1;" d="M 2796.976562 2295.507812 C 2796.792969 2301.230469 2789.597656 2305.714844 2781.5 2304.59375 C 2776.578125 2303.910156 2773.117188 2300.644531 2774.371094 2295.472656 C 2775.960938 2289 2781.515625 2287.242188 2787.503906 2287.710938 C 2792.207031 2288.078125 2796.136719 2290.085938 2796.976562 2295.507812 "/>
<path style=" stroke:none;fill-rule:nonzero;fill:rgb(100%,100%,100%);fill-opacity:1;" d="M 2971.144531 2239.515625 C 2970.476562 2245.691406 2966.496094 2249.121094 2960.519531 2249.640625 C 2956.992188 2249.941406 2954.332031 2247.046875 2954.246094 2243.515625 C 2954.0625 2236.957031 2957.710938 2233.34375 2964.320312 2233.511719 C 2967.816406 2233.59375 2970.34375 2235.601562 2971.144531 2239.515625 "/>
<path style=" stroke:none;fill-rule:nonzero;fill:rgb(100%,100%,100%);fill-opacity:1;" d="M 2701.859375 266 C 2702.644531 262.035156 2704.988281 259.457031 2708.96875 260.5625 C 2710.476562 260.980469 2712.164062 264.144531 2712.113281 266 C 2711.996094 269.917969 2709.453125 272.710938 2705.304688 271.355469 C 2703.734375 270.851562 2702.964844 267.839844 2701.859375 266 "/>
<path style=" stroke:none;fill-rule:nonzero;fill:rgb(100%,100%,100%);fill-opacity:1;" d="M 2679.925781 2311.4375 C 2680.007812 2310.519531 2679.824219 2309.011719 2680.257812 2308.792969 C 2681.046875 2308.425781 2682.199219 2308.8125 2683.203125 2308.878906 C 2683.121094 2309.796875 2683.320312 2311.320312 2682.886719 2311.523438 C 2682.082031 2311.890625 2680.929688 2311.503906 2679.925781 2311.4375 "/>
<path style=" stroke:none;fill-rule:evenodd;fill:rgb(100%,100%,100%);fill-opacity:1;" d="M 3132.261719 995.476562 C 3084.757812 886.777344 2976.410156 866.089844 2900.554688 962.296875 C 2852.914062 1022.691406 2833.878906 1129.453125 2869.160156 1218.507812 C 2912.644531 1328.042969 3030.855469 1349.21875 3102.539062 1252.386719 C 3147.960938 1190.882812 3171.574219 1085.164062 3132.261719 995.476562 Z M 2105.550781 934.808594 C 2009.429688 1019.429688 2083.050781 1223.785156 2259.332031 1291.742188 C 2418.109375 1352.898438 2521.324219 1174.433594 2366.019531 999.433594 C 2307.398438 933.355469 2179.871094 869.285156 2105.550781 934.808594 Z M 1992.195312 1556.90625 C 2045.132812 1630.625 2139.59375 1673.800781 2226.414062 1667.488281 C 2346.011719 1658.667969 2397.414062 1553.851562 2328.929688 1455.839844 C 2269.609375 1370.945312 2164.871094 1340.613281 2094.585938 1345.75 C 1978.871094 1354.285156 1922.324219 1459.585938 1992.195312 1556.90625 Z M 3147.410156 1517.269531 C 3117.824219 1422.035156 2963.621094 1352.617188 2877.078125 1325.546875 C 2841.523438 1314.507812 2791.371094 1303.058594 2753.304688 1299.445312 C 2612.3125 1286.054688 2541.742188 1319.925781 2478.539062 1454.035156 C 2458.945312 1495.617188 2445.621094 1532.335938 2435.34375 1573.566406 C 2432.558594 1584.742188 2430.335938 1593.070312 2428.523438 1604.597656 L 2416.722656 1666.789062 C 2402.546875 1743.839844 2401.160156 1916.195312 2476.863281 1955.902344 C 2558.003906 1998.523438 2665.101562 1903.421875 2731.640625 1838.660156 C 2761.648438 1809.367188 2809.429688 1759.875 2847.769531 1739.609375 C 2933.0625 1694.140625 3020.578125 1747.3125 3112.679688 1637.222656 C 3139.492188 1605.425781 3160.460938 1559.40625 3147.410156 1517.269531 Z M 2528.96875 719.699219 C 2505.214844 739.0625 2493.539062 755.792969 2482.710938 778.351562 C 2469.648438 806.121094 2469.097656 817.570312 2463.542969 843.042969 C 2457.984375 868.660156 2457.148438 884.554688 2458.394531 911.625 C 2466.449219 1078.636719 2599.675781 1201.082031 2703.714844 1114.875 C 2772.0625 1058.300781 2783.863281 937.867188 2758.039062 849.914062 C 2742.339844 795.84375 2711.632812 745.035156 2667.1875 715.742188 C 2631.757812 692.550781 2576.882812 681.101562 2528.96875 719.699219 Z M 2528.96875 719.699219 "/>
</g>
</svg>
